0
SECTION
2
HEADER
9
$INSUNITS
70
4
9
$ACADVER
1
AC1014
9
$HANDSEED
5
FFFF
0
ENDSEC
0
SECTION
2
TABLES
0
TABLE
2
VPORT
5
8
100
AcDbSymbolTable
0
ENDTAB
0
TABLE
2
LTYPE
5
5
100
AcDbSymbolTable
0
LTYPE
5
14
100
AcDbSymbolTableRecord
100
AcDbLinetypeTableRecord
2
BYBLOCK
70
0
0
LTYPE
5
15
100
AcDbSymbolTableRecord
100
AcDbLinetypeTableRecord
2
BYLAYER
70
0
0
LTYPE
5
16
100
AcDbSymbolTableRecord
100
AcDbLinetypeTableRecord
2
DASHED
70
0
3
Dashed __ __ __ __ __ __ __ __ __ __ __ __ __ _
72
65
73
2
40
0.75
49
0.5
74
0
49
-0.25
74
0
0
ENDTAB
0
TABLE
2
LAYER
5
2
100
AcDbSymbolTable
70
3
0
LAYER
5
50
100
AcDbSymbolTableRecord
100
AcDbLayerTableRecord
2
1
70
0
62
7
6
DASHED
0
LAYER
5
51
100
AcDbSymbolTableRecord
100
AcDbLayerTableRecord
2
0
70
0
62
7
6
CONTINUOUS
0
ENDTAB
0
TABLE
2
STYLE
5
3
100
AcDbSymbolTable
70
1
0
STYLE
5
11
100
AcDbSymbolTableRecord
100
AcDbTextStyleTableRecord
2
STANDARD
70
0
0
ENDTAB
0
TABLE
2
VIEW
5
6
100
AcDbSymbolTable
70
0
0
ENDTAB
0
TABLE
2
UCS
5
7
100
AcDbSymbolTable
70
0
0
ENDTAB
0
TABLE
2
APPID
5
9
100
AcDbSymbolTable
70
2
0
APPID
5
12
100
AcDbSymbolTableRecord
100
AcDbRegAppTableRecord
2
ACAD
70
0
0
ENDTAB
0
TABLE
2
DIMSTYLE
5
A
100
AcDbSymbolTable
70
1
0
ENDTAB
0
TABLE
2
BLOCK_RECORD
5
1
100
AcDbSymbolTable
70
1
0
BLOCK_RECORD
5
1F
100
AcDbSymbolTableRecord
100
AcDbBlockTableRecord
2
*MODEL_SPACE
0
BLOCK_RECORD
5
1B
100
AcDbSymbolTableRecord
100
AcDbBlockTableRecord
2
*PAPER_SPACE
0
ENDTAB
0
ENDSEC
0
SECTION
2
BLOCKS
0
BLOCK
5
20
100
AcDbEntity
100
AcDbBlockBegin
2
*MODEL_SPACE
0
ENDBLK
5
21
100
AcDbEntity
100
AcDbBlockEnd
0
BLOCK
5
1C
100
AcDbEntity
100
AcDbBlockBegin
2
*PAPER_SPACE
0
ENDBLK
5
1D
100
AcDbEntity
100
AcDbBlockEnd
0
ENDSEC
0
SECTION
2
ENTITIES
0
LINE
5
100
100
AcDbEntity
8
0
100
AcDbLine
10
11.300028067844201
20
-72.560000000000002
30
0
11
53.565982719593705
21
-72.560000000000002
31
0
0
ARC
5
101
100
AcDbEntity
8
0
100
AcDbCircle
10
53.565982719593705
20
-117.56
30
0
40
45
210
-1.4679777579907837e-16
220
-3.6643524579439187e-16
230
1
100
AcDbArc
50
68.168446698148898
51
90
0
ARC
5
102
100
AcDbEntity
8
0
100
AcDbCircle
10
82.795680350428114
20
-44.597100000000005
30
0
40
33.600000000000037
210
1.9660416401662201e-16
220
4.9076148990320326e-16
230
1
100
AcDbArc
50
-111.83155330185106
51
77.004857649921931
0
SPLINE
5
103
100
AcDbEntity
8
0
100
AcDbSpline
70
0
71
3
72
8
73
4
74
0
42
0.000000001
43
0.0000000001
44
0.0000000001
40
0
40
0
40
0
40
0
40
2.3712841839493799
40
2.3712841839493799
40
2.3712841839493799
40
2.3712841839493799
10
69.697877203221395
20
-0.84386996740639209
30
0
10
75.456856471147603
20
-6.2413023762090987
30
0
10
82.660488764369703
20
-10.082757444316602
30
0
10
90.351260085871004
20
-11.857625128503299
30
0
0
LINE
5
104
100
AcDbEntity
8
0
100
AcDbLine
10
69.697877203221395
20
-0.84386996740639209
30
0
11
69.326875657074595
21
-0.496159778546782
31
0
0
SPLINE
5
105
100
AcDbEntity
8
0
100
AcDbSpline
70
0
71
3
72
11
73
7
74
0
42
0.000000001
43
0.0000000001
44
0.0000000001
40
-4.7705518386620396
40
-4.7705518386620396
40
-4.7705518386620396
40
-4.7705518386620396
40
-4.0534984521691602
40
-4.0534984521691602
40
-4.0534984521691602
40
-3.9386250532518599
40
-3.9386250532518599
40
-3.9386250532518599
40
-3.9386250532518599
10
69.326875657074595
20
-0.49615977854678106
30
0
10
68.288578797252796
20
0.47695313963498709
30
0
10
67.195193870172901
20
1.4318572827392
30
0
10
66.004356131011704
20
2.3278369872442801
30
0
10
65.813648136179211
20
2.4713246239202098
30
0
10
65.621582961967704
20
2.6124369601591404
30
0
10
65.427988533197507
20
2.7511235492188502
30
0
0
SPLINE
5
106
100
AcDbEntity
8
0
100
AcDbSpline
70
0
71
3
72
14
73
10
74
0
42
0.000000001
43
0.0000000001
44
0.0000000001
40
1.7303498208010999
40
1.7303498208010999
40
1.7303498208010999
40
1.7303498208010999
40
1.8190334549550204
40
1.8190334549550204
40
1.8190334549550204
40
2.3770292562921487
40
2.3770292562921487
40
2.3770292562921487
40
3.9385228480714498
40
3.9385228480714498
40
3.9385228480714498
40
3.9385228480714498
10
51.858668334413906
20
7.7728884797442985
30
5.3290705182007514e-14
10
52.073150970097643
20
7.7456722102555258
30
1.2434497875801753e-13
10
52.286435426523724
20
7.7171605246503407
30
0
10
52.498288827986997
20
7.6873454763478497
30
0
10
53.828786751386879
20
7.5000987312942566
30
0
10
55.115831893420406
20
7.2564836499247933
30
0
10
56.361790447203006
20
6.9409026314384104
30
0
10
59.832479200930408
20
6.0618336700950302
30
0
10
62.809282122078997
20
4.6261229778096755
30
0
10
65.427988533197507
20
2.7511235492188564
30
0
0
SPLINE
5
107
100
AcDbEntity
8
0
100
AcDbSpline
70
0
71
3
72
17
73
13
74
0
42
0.000000001
43
0.0000000001
44
0.0000000001
40
-1.73016965474235
40
-1.73016965474235
40
-1.73016965474235
40
-1.73016965474235
40
-1.73005960159614
40
-1.73005960159614
40
-1.73005960159614
40
-0.86502778498259303
40
-0.86502778498259303
40
-0.43251187667581997
40
-0.43251187667581997
40
-0.133031653133143
40
-0.133031653133143
40
4.0316309529972103e-06
40
4.0316309529972103e-06
40
4.0316309529972103e-06
40
4.0316309529972103e-06
10
51.858668334400598
20
7.7728884797459896
30
0
10
51.858402382889309
20
7.7729220912797903
30
0
10
51.858136429380401
20
7.77295570076849
30
0
10
51.85787047387371
20
7.7729893082122503
30
0
10
49.767426147825908
20
8.0371481180379494
30
0
10
47.555032751748101
20
8.1758677002228808
30
0
10
43.938799539792797
20
8.2893675863452891
30
0
10
42.683533972253002
20
8.3112485214328302
30
0
10
40.457487742966201
20
8.33292345802335
30
0
10
39.517960895899499
20
8.3374291095481805
30
0
10
38.1146591367513
20
8.3407869781584303
30
0
10
37.675528610521098
20
8.3413895892973109
30
0
10
37.232073041895703
20
8.3417471609070297
30
0
0
LINE
5
108
100
AcDbEntity
8
0
100
AcDbLine
10
37.231851303083495
20
8.3417481361503025
30
0
11
27.639555662361225
21
8.3417481733804255
31
0
0
SPLINE
5
109
100
AcDbEntity
8
0
100
AcDbSpline
70
0
71
3
72
17
73
13
74
0
42
0.000000001
43
0.0000000001
44
0.0000000001
40
-6.5342711135568097
40
-6.5342711135568097
40
-6.5342711135568097
40
-6.5342711135568097
40
-6.4665971571908099
40
-6.4665971571908099
40
-6.4665971571908099
40
-5.5976217827257235
40
-5.5976217827257235
40
-5.5976217827257235
40
-5.476380387477743
40
-5.476380387477743
40
-5.476380387477743
40
-5.4119148144366402
40
-5.4119148144366402
40
-5.4119148144366402
40
-5.4119148144366402
10
27.639333932108698
20
8.3417471982159608
30
0
10
27.327280149128505
20
8.3414955922325102
30
0
10
27.017194315386096
20
8.3411249069489806
30
3.5527136788005009e-14
10
26.711324275956898
20
8.3405743419168292
30
5.3290705182007514e-14
10
22.783764157953399
20
8.3335047470434933
30
-3.5527136788005009e-14
10
19.420541433830632
20
8.2994610448084103
30
0
10
16.370363267099446
20
8.0928384576382815
30
0
10
15.944795561090448
20
8.0640100103722432
30
0
10
15.525019874098717
20
8.0317958014099329
30
0
10
15.111289236776592
20
7.9958823638765972
30
0
10
14.89151055841868
20
7.9768047149805499
30
0
10
14.672286297116869
20
7.9565818200071048
30
0
10
14.454579132370908
20
7.9352272418070582
30
0
0
SPLINE
5
110
100
AcDbEntity
8
0
100
AcDbSpline
70
0
71
3
72
14
73
10
74
0
42
0.000000001
43
0.0000000001
44
0.0000000001
40
3.0758917364995599
40
3.0758917364995599
40
3.0758917364995599
40
3.0758917364995599
40
3.7123797507355296
40
3.7123797507355296
40
3.7123797507355296
40
4.5065773240961571
40
4.5065773240961571
40
4.5065773240961571
40
4.5361904209600397
40
4.5361904209600397
40
4.5361904209600397
40
4.5361904209600397
10
-2.2128838352981739
20
1.4798125030167228
30
0
10
-0.41016649130601129
20
2.9542988693842083
30
0
10
1.6435918128103457
20
4.3422190260665658
30
0
10
4.1127462514925401
20
5.4362678500177211
30
0
10
7.1973288499707522
20
6.8030045398646157
30
0
10
10.467532611665149
20
7.515456409788472
30
0
10
14.051198253482402
20
7.8940986608479902
30
0
10
14.185277353533554
20
7.9082651644612101
30
0
10
14.319419929410017
20
7.9219384360327574
30
0
10
14.454579132370903
20
7.9352272418070493
30
0
0
SPLINE
5
111
100
AcDbEntity
8
0
100
AcDbSpline
70
0
71
3
72
10
73
6
74
0
42
0.000000001
43
0.0000000001
44
0.0000000001
40
-3.4771178102886902
40
-3.4771178102886902
40
-3.4771178102886902
40
-3.4771178102886902
40
-3.47701232114989
40
-3.47701232114989
40
-3.1278639434193898
40
-3.1278639434193898
40
-3.1278639434193898
40
-3.1278639434193898
10
-2.2128838352982201
20
1.47981250301671
30
0
10
-2.21311771584443
20
1.4796209899812003
30
0
10
-2.21335159340705
20
1.4794294744863801
30
0
10
-2.9876644959536498
20
0.84535105905511809
30
0
10
-3.72891332731403
20
0.18479400032437004
30
0
10
-4.4545030699946997
20
-0.49521144053429805
30
0
0
LINE
5
112
100
AcDbEntity
8
0
100
AcDbLine
10
-4.4545030699946997
20
-0.49521144053429811
30
0
11
-4.8255636190636313
21
-0.84296055744252307
31
0
0
SPLINE
5
113
100
AcDbEntity
8
0
100
AcDbSpline
70
0
71
3
72
8
73
4
74
0
42
0.000000001
43
0.0000000001
44
0.0000000001
40
0
40
0
40
0
40
0
40
2.3715954661999099
40
2.3715954661999099
40
2.3715954661999099
40
2.3715954661999099
10
-25.482225295068201
20
-11.856927399449003
30
0
10
-17.790283360994501
20
-10.082537848918001
30
0
10
-10.585423502990901
20
-6.240964180238759
30
0
10
-4.8255636190636402
20
-0.84296055744251597
30
0
0
ARC
5
114
100
AcDbEntity
8
0
100
AcDbCircle
10
-17.929669562990604
20
-44.597100000000005
30
0
40
33.600000000000129
210
0
220
0
230
1
100
AcDbArc
50
102.98985024370207
51
291.83155330185133
0
ARC
5
115
100
AcDbEntity
8
0
100
AcDbCircle
10
11.300028067844201
20
-117.56
30
0
40
45
210
0
220
-0
230
1
100
AcDbArc
50
90
51
111.83155330185134
0
CIRCLE
5
116
100
AcDbEntity
8
0
100
AcDbCircle
10
1.65682004278914
20
-14.6704050382776
30
0
40
2.25
210
-1.2154326714572542e-63
220
-2.2204460492503101e-16
230
1
0
CIRCLE
5
117
100
AcDbEntity
8
0
100
AcDbCircle
10
99.656820042789107
20
-61.968105038277699
30
0
40
2.25
210
0
220
-2.2204460492503101e-16
230
1
0
CIRCLE
5
118
100
AcDbEntity
8
0
100
AcDbCircle
10
-34.845979957210901
20
-61.982905038277707
30
0
40
2.25
210
0
220
-2.2204460492503101e-16
230
1
0
CIRCLE
5
119
100
AcDbEntity
8
0
100
AcDbCircle
10
60.156820042789107
20
-12.1704050382776
30
0
40
2.25
210
2.4308653429145085e-63
220
-2.2204460492503101e-16
230
1
0
ENDSEC
0
SECTION
2
OBJECTS
0
DICTIONARY
5
C
100
AcDbDictionary
3
ACAD_GROUP
350
D
3
ACAD_MLINESTYLE
350
17
0
DICTIONARY
5
D
100
AcDbDictionary
0
DICTIONARY
5
1A
330
C
100
AcDbDictionary
0
DICTIONARY
5
17
100
AcDbDictionary
0
ENDSEC
0
EOF
