  0
SECTION
  2
HEADER
  9
$ACADVER
  1
AC1009
  9
$INSBASE
 10
0.0
 20
0.0
 30
0.0
  9
$EXTMIN
 10
0.0
 20
0.0
 30
0.0
  9
$EXTMAX
 10
0.0
 20
0.0
 30
0.0
  0
ENDSEC
  0
SECTION
  2
TABLES
  0
TABLE
  2
VPORT
 70
0
  0
ENDTAB
  0
TABLE
  2
LTYPE
 70
1
  0
LTYPE
  2
CONTINUOUS
 70
0
  3
Solid line
 72
65
 73
0
 40
0.0
  0
ENDTAB
  0
TABLE
  2
LAYER
 70
1
  0
LAYER
  2
0
 70
64
 62
7
  6
continuous
  0
ENDTAB
  0
TABLE
  2
STYLE
 70
1
  0
STYLE
  2
STANDARD
 70
0
 40
0
 41
1.0
 50
0.0
 71
0
 42
1
 3
ARIAL.TTF
 4

  0
ENDTAB
  0
TABLE
  2
VIEW
 70
0
  0
ENDTAB
  0
ENDSEC
  0
SECTION
  2
BLOCKS
  0
BLOCK
  8
0
  2
FACEFEAT
 70
0
 10
0.0
 20
0.0
 30
0.0
  3
FACEFEAT
  0
LINE
  8
0
 62
0
 10
290.432908706969
 20
155.287863154525
 30
0.0
 11
321.028514038935
 21
155.28786315452504
 31
0.0
  0
ARC
  8
0
 62
0
 10
290.432908706969
 20
147.287863154525
 30
0.0
 40
8.0
 50
90.0
 51
-180.0
  0
LINE
  8
0
 62
0
 10
282.432908706969
 20
103.287863154524
 30
0.0
 11
282.432908706969
 21
147.287863154525
 31
0.0
  0
ARC
  8
0
 62
0
 10
290.432908706969
 20
103.287863154524
 30
0.0
 40
8.00000000000004
 50
-180.0
 51
-90.0
  0
LINE
  8
0
 62
0
 10
321.028514038935
 20
95.2878631545245
 30
0.0
 11
290.432908706969
 21
95.28786315452447
 31
0.0
  0
ARC
  8
0
 62
0
 10
321.028514038935
 20
103.287863154524
 30
0.0
 40
8.0
 50
-90.0
 51
0.0
  0
LINE
  8
0
 62
0
 10
329.028514038935
 20
147.287863154525
 30
0.0
 11
329.028514038935
 21
103.287863154524
 31
0.0
  0
ARC
  8
0
 62
0
 10
321.028514038935
 20
147.287863154525
 30
0.0
 40
8.00000000000001
 50
-0.0
 51
90.0
  0
ARC
  8
0
 62
0
 10
290.432908706969
 20
147.287863154524
 30
0.0
 40
13.0
 50
90.0
 51
172.26361996004084
  0
LINE
  8
0
 62
0
 10
321.028514038935
 20
160.287863154525
 30
0.0
 11
290.432908706969
 21
160.287863154525
 31
0.0
  0
ARC
  8
0
 62
0
 10
321.028514038935
 20
147.287863154525
 30
0.0
 40
13.0
 50
7.736380039954342
 51
90.0
  0
LINE
  8
0
 62
0
 10
334.028514038935
 20
149.037863154525
 30
0.0
 11
333.910187066923
 21
149.037863154525
 31
0.0
  0
LINE
  8
0
 62
0
 10
334.028514038935
 20
101.537863154524
 30
0.0
 11
334.028514038935
 21
149.037863154525
 31
0.0
  0
LINE
  8
0
 62
0
 10
333.910187066923
 20
101.537863154524
 30
0.0
 11
334.028514038935
 21
101.537863154524
 31
0.0
  0
ARC
  8
0
 62
0
 10
321.028514038935
 20
103.287863154524
 30
0.0
 40
13.0
 50
-90.0
 51
-7.736380039954579
  0
LINE
  8
0
 62
0
 10
290.432908706969
 20
90.2878631545244
 30
0.0
 11
321.028514038935
 21
90.28786315452443
 31
0.0
  0
ARC
  8
0
 62
0
 10
290.432908706969
 20
103.287863154524
 30
0.0
 40
13.0
 50
-172.26361996004553
 51
-90.0
  0
LINE
  8
0
 62
0
 10
277.432908706969
 20
101.537863154524
 30
0.0
 11
277.551235678981
 21
101.537863154524
 31
0.0
  0
LINE
  8
0
 62
0
 10
277.432908706969
 20
149.037863154524
 30
0.0
 11
277.432908706969
 21
101.537863154524
 31
0.0
  0
LINE
  8
0
 62
0
 10
277.551235678981
 20
149.037863154525
 30
0.0
 11
277.432908706969
 21
149.03786315452498
 31
0.0
  0
LINE
  8
0
 62
0
 10
168.979441778938
 20
292.696223404894
 30
0.0
 11
259.479441778938
 21
292.696223404894
 31
0.0
  0
ARC
  8
0
 62
0
 10
168.979441778938
 20
284.696223404894
 30
0.0
 40
8.00000000000001
 50
90.0
 51
-180.0
  0
LINE
  8
0
 62
0
 10
160.979441778938
 20
247.887194912961
 30
0.0
 11
160.979441778938
 21
284.696223404894
 31
0.0
  0
ARC
  8
0
 62
0
 10
165.979441778938
 20
247.887194912961
 30
0.0
 40
4.99999999999986
 50
-180.0
 51
-147.00411452642012
  0
ARC
  8
0
 62
0
 10
152.979441778938
 20
239.446223404894
 30
0.0
 40
10.5
 50
-32.99588547357957
 51
32.99588547357686
  0
ARC
  8
0
 62
0
 10
165.979441778938
 20
231.005251896827
 30
0.0
 40
4.99999999999986
 50
147.00411452642507
 51
-180.0
  0
LINE
  8
0
 62
0
 10
160.979441778938
 20
194.196223404894
 30
0.0
 11
160.979441778938
 21
231.005251896827
 31
0.0
  0
ARC
  8
0
 62
0
 10
168.979441778938
 20
194.196223404894
 30
0.0
 40
8.00000000000001
 50
-180.0
 51
-90.0
  0
LINE
  8
0
 62
0
 10
259.479441778938
 20
186.196223404894
 30
0.0
 11
168.979441778938
 21
186.196223404894
 31
0.0
  0
ARC
  8
0
 62
0
 10
259.479441778938
 20
194.196223404894
 30
0.0
 40
7.99999999999997
 50
-90.0
 51
-0.0
  0
LINE
  8
0
 62
0
 10
267.479441778938
 20
231.005251896827
 30
0.0
 11
267.479441778938
 21
194.196223404894
 31
0.0
  0
ARC
  8
0
 62
0
 10
262.479441778938
 20
231.005251896827
 30
0.0
 40
4.99999999999991
 50
-0.0
 51
32.995885473579264
  0
ARC
  8
0
 62
0
 10
275.479441778938
 20
239.446223404894
 30
0.0
 40
10.5
 50
147.00411452642044
 51
-147.00411452641862
  0
ARC
  8
0
 62
0
 10
262.479441778938
 20
247.887194912961
 30
0.0
 40
4.99999999999982
 50
-32.99588547358467
 51
0.0
  0
LINE
  8
0
 62
0
 10
267.479441778938
 20
284.696223404894
 30
0.0
 11
267.479441778938
 21
247.887194912961
 31
0.0
  0
ARC
  8
0
 62
0
 10
259.479441778938
 20
284.696223404894
 30
0.0
 40
7.99999999999998
 50
-0.0
 51
90.00000000000041
  0
ARC
  8
0
 62
0
 10
168.979441778938
 20
194.196223404894
 30
0.0
 40
13.0
 50
-180.0
 51
-90.0
  0
LINE
  8
0
 62
0
 10
155.979441778938
 20
232.645488150526
 30
0.0
 11
155.979441778938
 21
194.196223404894
 31
0.0
  0
ARC
  8
0
 62
0
 10
160.979441778938
 20
232.645488150526
 30
0.0
 40
5.00000000000012
 50
139.6324064558146
 51
-180.0
  0
ARC
  8
0
 62
0
 10
152.979441778938
 20
239.446223404894
 30
0.0
 40
5.5
 50
-40.36759354418674
 51
40.36759354418527
  0
ARC
  8
0
 62
0
 10
160.979441778938
 20
246.246958659261
 30
0.0
 40
5.00000000000009
 50
-180.0
 51
-139.632406455822
  0
LINE
  8
0
 62
0
 10
155.979441778938
 20
284.696223404894
 30
0.0
 11
155.979441778938
 21
246.246958659261
 31
0.0
  0
ARC
  8
0
 62
0
 10
168.979441778938
 20
284.696223404894
 30
0.0
 40
13.0
 50
90.0
 51
-180.0
  0
LINE
  8
0
 62
0
 10
259.479441778938
 20
297.696223404894
 30
0.0
 11
168.979441778938
 21
297.696223404894
 31
0.0
  0
ARC
  8
0
 62
0
 10
259.479441778938
 20
284.696223404894
 30
0.0
 40
13.0
 50
-0.0
 51
90.0
  0
LINE
  8
0
 62
0
 10
272.479441778938
 20
246.246958659261
 30
0.0
 11
272.479441778938
 21
284.696223404894
 31
0.0
  0
ARC
  8
0
 62
0
 10
267.479441778938
 20
246.246958659261
 30
0.0
 40
4.99999999999991
 50
-40.36759354418546
 51
-0.0
  0
ARC
  8
0
 62
0
 10
275.479441778938
 20
239.446223404894
 30
0.0
 40
5.49999999999995
 50
139.63240645581305
 51
-139.63240645581436
  0
ARC
  8
0
 62
0
 10
267.479441778938
 20
232.645488150526
 30
0.0
 40
4.99999999999996
 50
-0.0
 51
40.36759354418619
  0
LINE
  8
0
 62
0
 10
272.479441778938
 20
194.196223404894
 30
0.0
 11
272.47944177893794
 21
232.645488150526
 31
0.0
  0
ARC
  8
0
 62
0
 10
259.479441778938
 20
194.196223404894
 30
0.0
 40
13.0
 50
-90.0
 51
-0.0
  0
LINE
  8
0
 62
0
 10
168.979441778938
 20
181.196223404894
 30
0.0
 11
259.479441778938
 21
181.196223404894
 31
0.0
  0
LINE
  8
0
 62
0
 10
94.8191040932374
 20
193.797827595811
 30
0.0
 11
141.819104093237
 21
193.797827595811
 31
0.0
  0
ARC
  8
0
 62
0
 10
94.8191040932374
 20
185.797827595811
 30
0.0
 40
8.0
 50
90.0
 51
-180.0
  0
LINE
  8
0
 62
0
 10
86.8191040932374
 20
154.988799103878
 30
0.0
 11
86.81910409323741
 21
185.797827595811
 31
0.0
  0
ARC
  8
0
 62
0
 10
91.8191040932374
 20
154.988799103878
 30
0.0
 40
4.99999999999998
 50
-180.0
 51
-147.00411452642055
  0
ARC
  8
0
 62
0
 10
78.8191040932374
 20
146.547827595811
 30
0.0
 40
10.5
 50
-32.9958854735796
 51
32.99588547358069
  0
ARC
  8
0
 62
0
 10
91.8191040932375
 20
138.106856087744
 30
0.0
 40
5.00000000000005
 50
147.00411452642408
 51
-180.0
  0
LINE
  8
0
 62
0
 10
86.8191040932374
 20
107.297827595811
 30
0.0
 11
86.8191040932374
 21
138.106856087744
 31
0.0
  0
ARC
  8
0
 62
0
 10
94.8191040932374
 20
107.297827595811
 30
0.0
 40
8.0
 50
-180.0
 51
-90.0
  0
LINE
  8
0
 62
0
 10
141.819104093237
 20
99.2978275958111
 30
0.0
 11
94.8191040932374
 21
99.2978275958111
 31
0.0
  0
ARC
  8
0
 62
0
 10
141.819104093237
 20
107.297827595811
 30
0.0
 40
8.00000000000001
 50
-90.0
 51
-0.0
  0
LINE
  8
0
 62
0
 10
149.819104093237
 20
138.106856087744
 30
0.0
 11
149.819104093237
 21
107.297827595811
 31
0.0
  0
ARC
  8
0
 62
0
 10
144.819104093238
 20
138.106856087744
 30
0.0
 40
4.99999999999992
 50
-0.0
 51
32.99588547357999
  0
ARC
  8
0
 62
0
 10
157.819104093237
 20
146.547827595811
 30
0.0
 40
10.5
 50
147.00411452642058
 51
-147.00411452641853
  0
ARC
  8
0
 62
0
 10
144.819104093237
 20
154.988799103878
 30
0.0
 40
4.99999999999998
 50
-32.99588547357475
 51
-0.0
  0
LINE
  8
0
 62
0
 10
149.819104093237
 20
185.797827595811
 30
0.0
 11
149.819104093237
 21
154.988799103878
 31
0.0
  0
ARC
  8
0
 62
0
 10
141.819104093237
 20
185.797827595811
 30
0.0
 40
7.99999999999998
 50
-0.0
 51
90.0
  0
LINE
  8
0
 62
0
 10
81.8191040932375
 20
185.797827595811
 30
0.0
 11
81.81910409323748
 21
153.348562850179
 31
0.0
  0
ARC
  8
0
 62
0
 10
94.8191040932375
 20
185.797827595811
 30
0.0
 40
13.0
 50
90.00000000000006
 51
-180.0
  0
LINE
  8
0
 62
0
 10
141.819104093237
 20
198.797827595811
 30
0.0
 11
94.8191040932374
 21
198.797827595811
 31
0.0
  0
ARC
  8
0
 62
0
 10
141.819104093237
 20
185.797827595811
 30
0.0
 40
13.0
 50
-0.0
 51
90.0
  0
LINE
  8
0
 62
0
 10
154.819104093237
 20
153.348562850179
 30
0.0
 11
154.819104093237
 21
185.797827595811
 31
0.0
  0
ARC
  8
0
 62
0
 10
149.819104093237
 20
153.348562850179
 30
0.0
 40
5.00000000000003
 50
-40.36759354418557
 51
-0.0
  0
ARC
  8
0
 62
0
 10
157.819104093237
 20
146.547827595811
 30
0.0
 40
5.49999999999999
 50
139.63240645581305
 51
-139.6324064558143
  0
ARC
  8
0
 62
0
 10
149.819104093237
 20
139.747092341443
 30
0.0
 40
5.00000000000004
 50
-0.0
 51
40.36759354418651
  0
LINE
  8
0
 62
0
 10
154.819104093237
 20
107.297827595811
 30
0.0
 11
154.819104093237
 21
139.747092341443
 31
0.0
  0
ARC
  8
0
 62
0
 10
141.819104093237
 20
107.297827595811
 30
0.0
 40
13.0
 50
-90.0
 51
-0.0
  0
LINE
  8
0
 62
0
 10
94.8191040932374
 20
94.2978275958111
 30
0.0
 11
141.819104093237
 21
94.2978275958111
 31
0.0
  0
ARC
  8
0
 62
0
 10
94.8191040932374
 20
107.297827595811
 30
0.0
 40
13.0
 50
-180.0
 51
-90.0
  0
LINE
  8
0
 62
0
 10
81.8191040932374
 20
139.747092341443
 30
0.0
 11
81.8191040932374
 21
107.297827595811
 31
0.0
  0
ARC
  8
0
 62
0
 10
86.8191040932374
 20
139.747092341443
 30
0.0
 40
4.99999999999999
 50
139.6324064558145
 51
-180.0
  0
ARC
  8
0
 62
0
 10
78.8191040932374
 20
146.547827595811
 30
0.0
 40
5.49999999999999
 50
-40.36759354418558
 51
40.36759354418558
  0
ARC
  8
0
 62
0
 10
86.8191040932374
 20
153.348562850179
 30
0.0
 40
4.99999999999996
 50
-180.0
 51
-139.63240645581175
  0
ARC
  8
0
 62
0
 10
136.484208000109
 20
38.1055229904041
 30
0.0
 40
30.6
 50
-111.56925112767432
 51
76.63860411011653
  0
ARC
  8
0
 62
0
 10
155.087038500111
 20
116.426328899539
 30
0.0
 40
49.899776029939
 50
-133.14392839206386
 51
-103.36132750540328
  0
POLYLINE
  8
0
 62
0
 70
0
 66
1
 10
0.0
 20
0.0
 30
0.0
  0
VERTEX
  8
0
 10
90.9181817018146
 20
88.0443711265632
 30
0.0
  0
VERTEX
  8
0
 10
97.209593462656
 20
87.99484127095872
 30
0.0
  0
VERTEX
  8
0
 10
102.58482535031798
 20
87.75745205754657
 30
0.0
  0
VERTEX
  8
0
 10
107.24400442307704
 20
87.1825008384701
 30
0.0
  0
VERTEX
  8
0
 10
111.34721890535175
 20
86.13337891212228
 30
0.0
  0
VERTEX
  8
0
 10
114.88169172817055
 20
84.5825701999225
 30
0.0
  0
VERTEX
  8
0
 10
118.04892399872169
 20
82.51217302944727
 30
0.0
  0
VERTEX
  8
0
 10
120.963905765422
 20
80.0175461650274
 30
0.0
  0
SEQEND
  8
0
  0
LINE
  8
0
 62
0
 10
81.3302804523376
 20
88.044371163776
 30
0.0
 11
90.9181817018146
 21
88.04437112656319
 31
0.0
  0
POLYLINE
  8
0
 62
0
 70
0
 66
1
 10
0.0
 20
0.0
 30
0.0
  0
VERTEX
  8
0
 10
51.2854707069576
 20
80.0184463178702
 30
0.0
  0
VERTEX
  8
0
 10
54.22364345487154
 20
82.5312742090502
 30
0.0
  0
VERTEX
  8
0
 10
57.44813599519597
 20
84.6266121181973
 30
0.0
  0
VERTEX
  8
0
 10
61.18346688346959
 20
86.22812025796352
 30
0.0
  0
VERTEX
  8
0
 10
65.31713557007832
 20
87.23859222505733
 30
0.0
  0
VERTEX
  8
0
 10
69.89351698266746
 20
87.77629600965358
 30
0.0
  0
VERTEX
  8
0
 10
75.14330710855913
 20
87.99768383733958
 30
0.0
  0
VERTEX
  8
0
 10
81.3302804523376
 20
88.044371163776
 30
0.0
  0
SEQEND
  8
0
  0
ARC
  8
0
 62
0
 10
17.1631932052906
 20
116.428030418996
 30
0.0
 40
49.8997759145038
 50
-76.64391446112852
 51
-46.8574173321542
  0
ARC
  8
0
 62
0
 10
35.7588580866896
 20
38.1055229904041
 30
0.0
 40
30.6000000000001
 50
103.35615396795188
 51
-68.43074887232395
  0
ARC
  8
0
 62
0
 10
65.3527122390306
 20
-36.7573770095959
 30
0.0
 40
49.9
 50
90.0
 51
111.56925112767537
  0
LINE
  8
0
 62
0
 10
106.890353847769
 20
13.1426229904039
 30
0.0
 11
65.3527122390306
 21
13.142622990404114
 31
0.0
  0
ARC
  8
0
 62
0
 10
106.890353847769
 20
-36.7573770095959
 30
0.0
 40
49.8999999999998
 50
68.43074887232468
 51
90.0
  0
ARC
  8
0
 62
0
 10
106.852281913707
 20
-36.9573770095959
 30
0.0
 40
47.1
 50
68.45781292739741
 51
90.0
  0
LINE
  8
0
 62
0
 10
65.3907841730926
 20
10.1426229904041
 30
0.0
 11
106.852281913707
 21
10.1426229904041
 31
0.0
  0
ARC
  8
0
 62
0
 10
65.3907841730926
 20
-36.9573770095959
 30
0.0
 40
47.1
 50
90.00000000000003
 51
111.54218707260384
  0
ARC
  8
0
 62
0
 10
35.7588580866896
 20
38.1055229904041
 30
0.0
 40
33.5999996028131
 50
103.35615396798691
 51
-68.45781292739679
  0
ARC
  8
0
 62
0
 10
17.1630322944746
 20
116.428362922013
 30
0.0
 40
46.9001369923946
 50
-76.64382141159717
 51
-46.85754729030719
  0
POLYLINE
  8
0
 62
0
 70
0
 66
1
 10
0.0
 20
0.0
 30
0.0
  0
VERTEX
  8
0
 10
81.3290710226386
 20
91.0443711637809
 30
0.0
  0
VERTEX
  8
0
 10
75.08116152146499
 20
90.99801372943683
 30
0.0
  0
VERTEX
  8
0
 10
69.6767661534515
 20
90.76856235379451
 30
0.0
  0
VERTEX
  8
0
 10
64.80565040363567
 20
90.19460152604614
 30
0.0
  0
VERTEX
  8
0
 10
60.24484895804565
 20
89.07744625030078
 30
0.0
  0
VERTEX
  8
0
 10
56.02650596624037
 20
87.26603820805319
 30
0.0
  0
VERTEX
  8
0
 10
52.41128242147116
 20
84.91882544415286
 30
0.0
  0
VERTEX
  8
0
 10
49.2340245796855
 20
82.2074115498698
 30
0.0
  0
SEQEND
  8
0
  0
LINE
  8
0
 62
0
 10
90.9193912030496
 20
91.0443711265584
 30
0.0
 11
81.3290710226386
 21
91.04437116378091
 31
0.0
  0
POLYLINE
  8
0
 62
0
 70
0
 66
1
 10
0.0
 20
0.0
 30
0.0
  0
VERTEX
  8
0
 10
122.993759991684
 20
82.2267376326811
 30
0.0
  0
VERTEX
  8
0
 10
119.84807388110322
 20
84.9129478571375
 30
0.0
  0
VERTEX
  8
0
 10
116.29556264109618
 20
87.22160393513792
 30
0.0
  0
VERTEX
  8
0
 10
112.29932995432252
 20
88.97522086191294
 30
0.0
  0
VERTEX
  8
0
 10
107.76462453290671
 20
90.13694260021275
 30
0.0
  0
VERTEX
  8
0
 10
102.80554679475972
 20
90.7532005383703
 30
0.0
  0
VERTEX
  8
0
 10
97.26622721803383
 20
90.99777799741805
 30
0.0
  0
VERTEX
  8
0
 10
90.9193912030496
 20
91.0443711265584
 30
0.0
  0
SEQEND
  8
0
  0
POLYLINE
  8
0
 62
0
 70
0
 66
1
 10
0.0
 20
0.0
 30
0.0
  0
VERTEX
  8
0
 10
144.270457101021
 20
70.7909069553898
 30
0.0
  0
VERTEX
  8
0
 10
139.5831636785645
 20
72.17081712023933
 30
0.0
  0
VERTEX
  8
0
 10
135.06864772788228
 20
74.02757421696934
 30
0.0
  0
VERTEX
  8
0
 10
130.77010877749464
 20
76.3379592990037
 30
0.0
  0
VERTEX
  8
0
 10
126.7307463559218
 20
79.07875341976633
 30
0.0
  0
VERTEX
  8
0
 10
122.993759991684
 20
82.2267376326811
 30
0.0
  0
SEQEND
  8
0
  0
ARC
  8
0
 62
0
 10
136.484208000109
 20
38.1055229904041
 30
0.0
 40
33.5999999999999
 50
-111.54218707260335
 51
76.60084221673635
  0
ARC
  8
0
 62
0
 10
260.823309931052
 20
165.197621633946
 30
0.0
 40
8.00000000000001
 50
-0.0
 51
90.0
  0
LINE
  8
0
 62
0
 10
224.014281439119
 20
173.197621633946
 30
0.0
 11
260.823309931052
 21
173.197621633946
 31
0.0
  0
ARC
  8
0
 62
0
 10
224.014281439119
 20
168.197621633946
 30
0.0
 40
5.00000000000001
 50
90.00000000000033
 51
122.99588547358469
  0
ARC
  8
0
 62
0
 10
215.573309931052
 20
181.197621633946
 30
0.0
 40
10.5
 50
-122.99588547358145
 51
-57.00411452642044
  0
ARC
  8
0
 62
0
 10
207.132338422985
 20
168.197621633946
 30
0.0
 40
4.99999999999989
 50
57.00411452642011
 51
90.0
  0
LINE
  8
0
 62
0
 10
170.323309931052
 20
173.197621633946
 30
0.0
 11
207.132338422985
 21
173.197621633946
 31
0.0
  0
ARC
  8
0
 62
0
 10
170.323309931052
 20
165.197621633946
 30
0.0
 40
7.99999999999998
 50
89.9999999999998
 51
-180.0
  0
LINE
  8
0
 62
0
 10
162.323309931052
 20
105.447621633946
 30
0.0
 11
162.323309931052
 21
165.197621633946
 31
0.0
  0
ARC
  8
0
 62
0
 10
170.323309931052
 20
105.447621633946
 30
0.0
 40
8.0
 50
-180.0
 51
-90.0
  0
LINE
  8
0
 62
0
 10
207.132338422985
 20
97.4476216339458
 30
0.0
 11
170.323309931052
 21
97.4476216339458
 31
0.0
  0
ARC
  8
0
 62
0
 10
207.132338422985
 20
102.447621633946
 30
0.0
 40
5.0
 50
-90.0
 51
-57.004114526424885
  0
ARC
  8
0
 62
0
 10
215.573309931052
 20
89.4476216339457
 30
0.0
 40
10.5
 50
57.00411452642392
 51
122.99588547357945
  0
ARC
  8
0
 62
0
 10
224.014281439119
 20
102.447621633946
 30
0.0
 40
5.00000000000002
 50
-122.99588547357891
 51
-90.0
  0
LINE
  8
0
 62
0
 10
260.823309931052
 20
97.44762163394581
 30
0.0
 11
224.014281439119
 21
97.4476216339458
 31
0.0
  0
ARC
  8
0
 62
0
 10
260.823309931052
 20
105.447621633946
 30
0.0
 40
7.99999999999994
 50
-90.00000000000041
 51
-0.0
  0
LINE
  8
0
 62
0
 10
268.823309931052
 20
165.197621633946
 30
0.0
 11
268.823309931052
 21
105.447621633946
 31
0.0
  0
LINE
  8
0
 62
0
 10
157.323309931052
 20
165.197621633946
 30
0.0
 11
157.323309931052
 21
105.447621633946
 31
0.0
  0
ARC
  8
0
 62
0
 10
170.323309931052
 20
165.197621633946
 30
0.0
 40
13.0
 50
89.99999999999987
 51
-180.0
  0
LINE
  8
0
 62
0
 10
208.772574676684
 20
178.197621633946
 30
0.0
 11
170.323309931052
 21
178.197621633946
 31
0.0
  0
ARC
  8
0
 62
0
 10
208.772574676684
 20
173.197621633946
 30
0.0
 40
5.00000000000001
 50
49.63240645581468
 51
90.0
  0
ARC
  8
0
 62
0
 10
215.573309931052
 20
181.197621633946
 30
0.0
 40
5.49999999999999
 50
-130.36759354418672
 51
-49.63240645581432
  0
ARC
  8
0
 62
0
 10
222.374045185419
 20
173.197621633946
 30
0.0
 40
5.00000000000001
 50
90.0
 51
130.36759354417794
  0
LINE
  8
0
 62
0
 10
260.823309931052
 20
178.197621633946
 30
0.0
 11
222.374045185419
 21
178.197621633946
 31
0.0
  0
ARC
  8
0
 62
0
 10
260.823309931052
 20
165.197621633946
 30
0.0
 40
13.0
 50
-0.0
 51
90.0
  0
LINE
  8
0
 62
0
 10
273.823309931052
 20
105.447621633946
 30
0.0
 11
273.823309931052
 21
165.197621633946
 31
0.0
  0
ARC
  8
0
 62
0
 10
260.823309931052
 20
105.447621633946
 30
0.0
 40
13.0
 50
-90.0
 51
-0.0
  0
LINE
  8
0
 62
0
 10
222.374045185419
 20
92.4476216339458
 30
0.0
 11
260.823309931052
 21
92.4476216339458
 31
0.0
  0
ARC
  8
0
 62
0
 10
222.374045185419
 20
97.4476216339458
 30
0.0
 40
5.0
 50
-130.36759354418567
 51
-90.0
  0
ARC
  8
0
 62
0
 10
215.573309931052
 20
89.4476216339458
 30
0.0
 40
5.49999999999998
 50
49.63240645581455
 51
130.3675935441857
  0
ARC
  8
0
 62
0
 10
208.772574676684
 20
97.4476216339458
 30
0.0
 40
4.99999999999999
 50
-90.0
 51
-49.632406455812045
  0
LINE
  8
0
 62
0
 10
170.323309931052
 20
92.4476216339458
 30
0.0
 11
208.772574676684
 21
92.4476216339458
 31
0.0
  0
ARC
  8
0
 62
0
 10
170.323309931052
 20
105.447621633946
 30
0.0
 40
13.0
 50
180.0
 51
-90.0
  0
ARC
  8
0
 62
0
 10
87.7493895865001
 20
212.4135285921
 30
0.0
 40
4.99999999999995
 50
-122.99588547357688
 51
-89.99999999999902
  0
LINE
  8
0
 62
0
 10
139.558418078433
 20
207.413528592101
 30
0.0
 11
87.7493895865002
 21
207.41352859210016
 31
0.0
  0
ARC
  8
0
 62
0
 10
139.558418078433
 20
215.413528592101
 30
0.0
 40
8.00000000000002
 50
-90.0
 51
0.0
  0
LINE
  8
0
 62
0
 10
147.558418078432
 20
283.413528592101
 30
0.0
 11
147.5584180784331
 21
215.413528592101
 31
0.0
  0
ARC
  8
0
 62
0
 10
139.558418078432
 20
283.413528592101
 30
0.0
 40
7.99999999999998
 50
-0.0
 51
90.00000000000102
  0
LINE
  8
0
 62
0
 10
87.7493895864989
 20
291.4135285921
 30
0.0
 11
139.558418078432
 21
291.4135285921008
 31
0.0
  0
ARC
  8
0
 62
0
 10
87.749389586499
 20
286.4135285921
 30
0.0
 40
5.00000000000004
 50
90.00000000000115
 51
122.99588547358026
  0
ARC
  8
0
 62
0
 10
79.3084180784317
 20
299.4135285921
 30
0.0
 40
10.5
 50
-122.99588547357877
 51
-57.00411452641895
  0
ARC
  8
0
 62
0
 10
70.8674465703648
 20
286.4135285921
 30
0.0
 40
4.99999999999999
 50
57.00411452642249
 51
90.00000000000098
  0
LINE
  8
0
 62
0
 10
19.0584180784318
 20
291.413528592099
 30
0.0
 11
70.8674465703648
 21
291.4135285920998
 31
0.0
  0
ARC
  8
0
 62
0
 10
19.0584180784319
 20
283.413528592099
 30
0.0
 40
8.00000000000001
 50
90.00000000000071
 51
-180.0
  0
LINE
  8
0
 62
0
 10
11.058418078433
 20
215.413528592099
 30
0.0
 11
11.058418078431922
 21
283.413528592099
 31
0.0
  0
ARC
  8
0
 62
0
 10
19.058418078433
 20
215.413528592099
 30
0.0
 40
8.00000000000002
 50
-180.0
 51
-89.9999999999992
  0
LINE
  8
0
 62
0
 10
70.8674465703661
 20
207.4135285921
 30
0.0
 11
19.0584180784331
 21
207.41352859209917
 31
0.0
  0
ARC
  8
0
 62
0
 10
70.867446570366
 20
212.4135285921
 30
0.0
 40
4.99999999999998
 50
-89.99999999999886
 51
-57.004114526419514
  0
ARC
  8
0
 62
0
 10
79.3084180784333
 20
199.4135285921
 30
0.0
 40
10.5
 50
57.0041145264214
 51
122.99588547358103
  0
ARC
  8
0
 62
0
 10
86.1091533327995
 20
291.4135285921
 30
0.0
 40
5.00000000000002
 50
90.00000000000065
 51
130.36759354418498
  0
LINE
  8
0
 62
0
 10
139.558418078432
 20
296.413528592101
 30
0.0
 11
86.1091533327995
 21
296.41352859210014
 31
0.0
  0
ARC
  8
0
 62
0
 10
139.558418078432
 20
283.413528592101
 30
0.0
 40
13.0
 50
0.0
 51
90.0
  0
LINE
  8
0
 62
0
 10
152.558418078433
 20
215.413528592101
 30
0.0
 11
152.5584180784319
 21
283.413528592101
 31
0.0
  0
ARC
  8
0
 62
0
 10
139.558418078433
 20
215.413528592101
 30
0.0
 40
13.0
 50
-89.99999999999912
 51
-0.0
  0
LINE
  8
0
 62
0
 10
86.109153332801
 20
202.4135285921
 30
0.0
 11
139.558418078433
 21
202.41352859210085
 31
0.0
  0
ARC
  8
0
 62
0
 10
86.1091533328009
 20
207.4135285921
 30
0.0
 40
5.0
 50
-130.36759354418476
 51
-89.99999999999886
  0
ARC
  8
0
 62
0
 10
79.3084180784333
 20
199.4135285921
 30
0.0
 40
5.49999999999999
 50
49.6324064558139
 51
130.36759354418652
  0
ARC
  8
0
 62
0
 10
72.5076828240655
 20
207.4135285921
 30
0.0
 40
5.00000000000001
 50
-89.99999999999919
 51
-49.63240645581606
  0
LINE
  8
0
 62
0
 10
19.0584180784332
 20
202.413528592099
 30
0.0
 11
72.5076828240655
 21
202.41352859209985
 31
0.0
  0
ARC
  8
0
 62
0
 10
19.058418078433
 20
215.413528592099
 30
0.0
 40
13.0
 50
-180.0
 51
-89.99999999999912
  0
LINE
  8
0
 62
0
 10
6.05841807843193
 20
283.413528592099
 30
0.0
 11
6.058418078433008
 21
215.413528592099
 31
0.0
  0
ARC
  8
0
 62
0
 10
19.0584180784319
 20
283.413528592099
 30
0.0
 40
13.0
 50
90.00000000000091
 51
-180.0
  0
LINE
  8
0
 62
0
 10
72.507682824064
 20
296.4135285921
 30
0.0
 11
19.0584180784317
 21
296.41352859209917
 31
0.0
  0
ARC
  8
0
 62
0
 10
72.5076828240641
 20
291.4135285921
 30
0.0
 40
5.0
 50
49.632406455815264
 51
90.00000000000115
  0
ARC
  8
0
 62
0
 10
79.3084180784317
 20
299.4135285921
 30
0.0
 40
5.5
 50
-130.36759354418598
 51
-49.63240645581368
  0
LINE
  8
0
 62
0
 10
20.4798943493869
 20
193.471781165029
 30
0.0
 11
66.4798943493869
 21
193.471781165029
 31
0.0
  0
ARC
  8
0
 62
0
 10
20.4798943493869
 20
185.471781165029
 30
0.0
 40
8.00000000000001
 50
90.0
 51
180.0
  0
LINE
  8
0
 62
0
 10
12.4798943493869
 20
116.971781165029
 30
0.0
 11
12.479894349386909
 21
185.471781165029
 31
0.0
  0
ARC
  8
0
 62
0
 10
20.4798943493869
 20
116.971781165029
 30
0.0
 40
8.00000000000001
 50
-180.0
 51
-90.0000000000001
  0
LINE
  8
0
 62
0
 10
66.4798943493869
 20
108.971781165029
 30
0.0
 11
20.479894349386896
 21
108.971781165029
 31
0.0
  0
ARC
  8
0
 62
0
 10
66.4798943493869
 20
116.971781165029
 30
0.0
 40
8.00000000000005
 50
-90.0
 51
-0.0
  0
LINE
  8
0
 62
0
 10
74.4798943493869
 20
185.471781165029
 30
0.0
 11
74.47989434938691
 21
116.971781165029
 31
0.0
  0
ARC
  8
0
 62
0
 10
66.4798943493869
 20
185.471781165029
 30
0.0
 40
8.0
 50
-0.0
 51
90.0
  0
LINE
  8
0
 62
0
 10
18.7298943493869
 20
103.971781165029
 30
0.0
 11
68.2298943493869
 21
103.971781165029
 31
0.0
  0
LINE
  8
0
 62
0
 10
18.7298943493869
 20
104.090108137041
 30
0.0
 11
18.7298943493869
 21
103.971781165029
 31
0.0
  0
ARC
  8
0
 62
0
 10
20.4798943493869
 20
116.971781165029
 30
0.0
 40
13.0
 50
-180.0
 51
-97.73638003995461
  0
LINE
  8
0
 62
0
 10
7.4798943493869
 20
185.471781165029
 30
0.0
 11
7.4798943493869
 21
116.971781165029
 31
0.0
  0
ARC
  8
0
 62
0
 10
20.4798943493869
 20
185.471781165029
 30
0.0
 40
13.0
 50
97.73638003995444
 51
-180.0
  0
LINE
  8
0
 62
0
 10
18.7298943493869
 20
198.471781165029
 30
0.0
 11
18.7298943493869
 21
198.353454193017
 31
0.0
  0
LINE
  8
0
 62
0
 10
68.2298943493869
 20
198.471781165029
 30
0.0
 11
18.729894349386896
 21
198.471781165029
 31
0.0
  0
LINE
  8
0
 62
0
 10
68.2298943493869
 20
198.353454193017
 30
0.0
 11
68.2298943493869
 21
198.471781165029
 31
0.0
  0
ARC
  8
0
 62
0
 10
66.4798943493869
 20
185.471781165029
 30
0.0
 40
13.0
 50
-0.0
 51
82.26361996004543
  0
LINE
  8
0
 62
0
 10
79.4798943493869
 20
116.971781165029
 30
0.0
 11
79.4798943493869
 21
185.471781165029
 31
0.0
  0
ARC
  8
0
 62
0
 10
66.4798943493869
 20
116.971781165029
 30
0.0
 40
13.0
 50
-82.26361996004555
 51
-0.0
  0
LINE
  8
0
 62
0
 10
68.2298943493869
 20
103.971781165029
 30
0.0
 11
68.2298943493869
 21
104.090108137041
 31
0.0
  0
ARC
  8
0
 62
0
 10
205.229226486511
 20
38.31973752298
 30
0.0
 40
30.4999999999984
 50
103.3561539679585
 51
-68.43074887232473
  0
ARC
  8
0
 62
0
 10
234.823080638852
 20
-36.54316247702
 30
0.0
 40
49.9999999999999
 50
90.00000000000014
 51
111.56925112767584
  0
LINE
  8
0
 62
0
 10
276.360722247589
 20
13.45683752298
 30
0.0
 11
234.823080638852
 21
13.456837522979903
 31
0.0
  0
ARC
  8
0
 62
0
 10
276.360722247589
 20
-36.54316247702
 30
0.0
 40
50.0
 50
68.43074887232464
 51
90.0
  0
ARC
  8
0
 62
0
 10
305.95457639993
 20
38.31973752298
 30
0.0
 40
30.5
 50
-111.56925112767509
 51
76.63859850485215
  0
ARC
  8
0
 62
0
 10
324.557412176218
 20
116.640553250681
 30
0.0
 40
49.9997868020407
 50
-133.14392497282347
 51
-103.36132750541675
  0
POLYLINE
  8
0
 62
0
 70
0
 66
1
 10
0.0
 20
0.0
 30
0.0
  0
VERTEX
  8
0
 10
260.387461561087
 20
88.1585865043538
 30
0.0
  0
VERTEX
  8
0
 10
266.16209085843036
 20
88.1307994114042
 30
0.0
  0
VERTEX
  8
0
 10
271.4188425610577
 20
87.93312860673147
 30
0.0
  0
VERTEX
  8
0
 10
276.1851819485463
 20
87.39099415814442
 30
0.0
  0
VERTEX
  8
0
 10
280.4773420800738
 20
86.35583976101952
 30
0.0
  0
VERTEX
  8
0
 10
284.1701812850456
 20
84.78139914121091
 30
0.0
  0
VERTEX
  8
0
 10
287.4219609909343
 20
82.67487425945433
 30
0.0
  0
VERTEX
  8
0
 10
290.365890913865
 20
80.1587967960422
 30
0.0
  0
SEQEND
  8
0
  0
LINE
  8
0
 62
0
 10
250.801737348428
 20
88.1585865414908
 30
0.0
 11
260.387461561087
 21
88.15858650435374
 31
0.0
  0
POLYLINE
  8
0
 62
0
 70
0
 66
1
 10
0.0
 20
0.0
 30
0.0
  0
VERTEX
  8
0
 10
220.824222822947
 20
80.1596973844379
 30
0.0
  0
VERTEX
  8
0
 10
223.74198175152972
 20
82.65559746621614
 30
0.0
  0
VERTEX
  8
0
 10
226.916735507594
 20
84.7257498550358
 30
0.0
  0
VERTEX
  8
0
 10
230.58643797919336
 20
86.31462080613474
 30
0.0
  0
VERTEX
  8
0
 10
234.78827052873064
 20
87.35086691977445
 30
0.0
  0
VERTEX
  8
0
 10
239.65923939293378
 20
87.91128701246564
 30
0.0
  0
VERTEX
  8
0
 10
245.15975080874125
 20
88.12515629713758
 30
0.0
  0
VERTEX
  8
0
 10
250.801737348428
 20
88.1585865414908
 30
0.0
  0
SEQEND
  8
0
  0
ARC
  8
0
 62
0
 10
186.633556326616
 20
116.642254775604
 30
0.0
 40
49.9997866921738
 50
-76.64391103965717
 51
-46.85741733215773
  0
ARC
  8
0
 62
0
 10
276.360722247589
 20
-36.54316247702
 30
0.0
 40
47.5
 50
68.43074887232456
 51
90.0
  0
LINE
  8
0
 62
0
 10
234.823080638852
 20
10.9568375229799
 30
0.0
 11
276.360722247589
 21
10.956837522979997
 31
0.0
  0
ARC
  8
0
 62
0
 10
234.823080638852
 20
-36.54316247702
 30
0.0
 40
47.4999999999999
 50
90.00000000000014
 51
111.56925112767539
  0
ARC
  8
0
 62
0
 10
205.229226486511
 20
38.31973752298
 30
0.0
 40
33.0000000000001
 50
103.35615396795848
 51
-68.43074887232403
  0
ARC
  8
0
 62
0
 10
186.633556326616
 20
116.642254775604
 30
0.0
 40
47.4997866921738
 50
-76.64391446112596
 51
-46.85741733215789
  0
POLYLINE
  8
0
 62
0
 70
0
 66
1
 10
0.0
 20
0.0
 30
0.0
  0
VERTEX
  8
0
 10
250.799721622972
 20
90.6585857288609
 30
0.0
  0
VERTEX
  8
0
 10
245.11849121150985
 20
90.62483064733976
 30
0.0
  0
VERTEX
  8
0
 10
239.4872329320269
 20
90.40538775198816
 30
0.0
  0
VERTEX
  8
0
 10
234.35865691828448
 20
89.81354367032947
 30
0.0
  0
VERTEX
  8
0
 10
229.7948400004136
 20
88.68593972865457
 30
0.0
  0
VERTEX
  8
0
 10
225.72607037952395
 20
86.92191608049859
 30
0.0
  0
VERTEX
  8
0
 10
222.2335257572127
 20
84.64639938519042
 30
0.0
  0
VERTEX
  8
0
 10
219.114682204961
 20
81.9838330360458
 30
0.0
  0
SEQEND
  8
0
  0
LINE
  8
0
 62
0
 10
260.389477385895
 20
90.6585856916437
 30
0.0
 11
250.799721622972
 21
90.65858572886087
 31
0.0
  0
POLYLINE
  8
0
 62
0
 70
0
 66
1
 10
0.0
 20
0.0
 30
0.0
  0
VERTEX
  8
0
 10
292.07547219831
 20
81.9828943350672
 30
0.0
  0
VERTEX
  8
0
 10
288.9347813154253
 20
84.6652667435124
 30
0.0
  0
VERTEX
  8
0
 10
285.3512621325824
 20
86.9844680437177
 30
0.0
  0
VERTEX
  8
0
 10
281.2564794995969
 20
88.73077136736221
 30
0.0
  0
VERTEX
  8
0
 10
276.6035706546875
 20
89.85621046184288
 30
0.0
  0
VERTEX
  8
0
 10
271.58973995829297
 20
90.42750207159848
 30
0.0
  0
VERTEX
  8
0
 10
266.1993369634786
 20
90.63063314490475
 30
0.0
  0
VERTEX
  8
0
 10
260.389477385895
 20
90.6585856916437
 30
0.0
  0
SEQEND
  8
0
  0
ARC
  8
0
 62
0
 10
324.557412176218
 20
116.640553250681
 30
0.0
 40
47.4997793930153
 50
-133.14392839206442
 51
-103.36132750540536
  0
ARC
  8
0
 62
0
 10
305.95457639993
 20
38.31973752298
 30
0.0
 40
33.0
 50
-111.56925112767509
 51
76.63860411013363
  0
ENDBLK
  0
ENDSEC
  0
SECTION
  2
ENTITIES
  0
INSERT
  2
FACEFEAT
  8
0
 62
0
 10
0.0
 20
0.0
 30
0.0
  0
ENDSEC
  0
EOF
