0
SECTION
2
HEADER
9
$INSUNITS
70
4
9
$ACADVER
1
AC1014
9
$HANDSEED
5
FFFF
0
ENDSEC
0
SECTION
2
TABLES
0
TABLE
2
VPORT
5
8
100
AcDbSymbolTable
0
ENDTAB
0
TABLE
2
LTYPE
5
5
100
AcDbSymbolTable
0
LTYPE
5
14
100
AcDbSymbolTableRecord
100
AcDbLinetypeTableRecord
2
BYBLOCK
70
0
0
LTYPE
5
15
100
AcDbSymbolTableRecord
100
AcDbLinetypeTableRecord
2
BYLAYER
70
0
0
LTYPE
5
16
100
AcDbSymbolTableRecord
100
AcDbLinetypeTableRecord
2
DASHED
70
0
3
Dashed __ __ __ __ __ __ __ __ __ __ __ __ __ _
72
65
73
2
40
0.75
49
0.5
74
0
49
-0.25
74
0
0
ENDTAB
0
TABLE
2
LAYER
5
2
100
AcDbSymbolTable
70
3
0
LAYER
5
50
100
AcDbSymbolTableRecord
100
AcDbLayerTableRecord
2
1
70
0
62
7
6
DASHED
0
LAYER
5
51
100
AcDbSymbolTableRecord
100
AcDbLayerTableRecord
2
0
70
0
62
7
6
CONTINUOUS
0
ENDTAB
0
TABLE
2
STYLE
5
3
100
AcDbSymbolTable
70
1
0
STYLE
5
11
100
AcDbSymbolTableRecord
100
AcDbTextStyleTableRecord
2
STANDARD
70
0
0
ENDTAB
0
TABLE
2
VIEW
5
6
100
AcDbSymbolTable
70
0
0
ENDTAB
0
TABLE
2
UCS
5
7
100
AcDbSymbolTable
70
0
0
ENDTAB
0
TABLE
2
APPID
5
9
100
AcDbSymbolTable
70
2
0
APPID
5
12
100
AcDbSymbolTableRecord
100
AcDbRegAppTableRecord
2
ACAD
70
0
0
ENDTAB
0
TABLE
2
DIMSTYLE
5
A
100
AcDbSymbolTable
70
1
0
ENDTAB
0
TABLE
2
BLOCK_RECORD
5
1
100
AcDbSymbolTable
70
1
0
BLOCK_RECORD
5
1F
100
AcDbSymbolTableRecord
100
AcDbBlockTableRecord
2
*MODEL_SPACE
0
BLOCK_RECORD
5
1B
100
AcDbSymbolTableRecord
100
AcDbBlockTableRecord
2
*PAPER_SPACE
0
ENDTAB
0
ENDSEC
0
SECTION
2
BLOCKS
0
BLOCK
5
20
100
AcDbEntity
100
AcDbBlockBegin
2
*MODEL_SPACE
0
ENDBLK
5
21
100
AcDbEntity
100
AcDbBlockEnd
0
BLOCK
5
1C
100
AcDbEntity
100
AcDbBlockBegin
2
*PAPER_SPACE
0
ENDBLK
5
1D
100
AcDbEntity
100
AcDbBlockEnd
0
ENDSEC
0
SECTION
2
ENTITIES
0
LWPOLYLINE
5
100
100
AcDbEntity
8
0
100
AcDbPolyline
90
8
70
1
43
0.0
10
-59.026219926733283
20
-101.31852516215088
42
0.41421356237299511
10
-54.02621992673501
20
-96.318525162150891
10
-54.026219926734534
20
29.325276184089496
42
0.41421356237319412
10
-59.02621992673626
20
34.325276184089439
10
-62.688975143340507
20
34.325276184088167
42
0.41421356237309659
10
-67.688975143338823
20
29.325276184086437
10
-67.688975143295906
20
-96.318525162153904
42
0.41421356237309348
10
-62.688975143294165
20
-101.31852516215221
0
LWPOLYLINE
5
101
100
AcDbEntity
8
0
100
AcDbPolyline
90
8
70
1
43
0.0
10
44.973780073265132
20
-96.318525162112735
42
0.41421356237319751
10
49.973780073266866
20
-101.31852516211279
10
69.197528997457511
20
-101.31852516210603
42
0.35956700938515362
10
74.107448662413759
20
-97.263347306035556
10
95.087513639959539
20
11.762922100530123
42
0.47105658359897351
10
90.17759397499988
20
17.707744244459619
10
49.973780073263853
20
17.707744244445507
42
0.41421356237299461
10
44.973780073265544
20
12.7077442444455
0
LWPOLYLINE
5
102
100
AcDbEntity
8
0
100
AcDbPolyline
90
8
70
1
43
0.0
10
20.923780073265146
20
-85.415263784910167
10
-29.976219926734942
20
-85.415263784910167
42
-0.41421356237309842
10
-34.976219926734942
20
-80.415263784910124
10
-34.976219926734522
20
22.984736215090003
42
-0.41421356237309426
10
-29.976219926734519
20
27.98473621509001
10
20.92378007326559
20
27.984736215089999
42
-0.41421356237309764
10
25.923780073265572
20
22.984736215089953
10
25.923780073265203
20
-80.415263784910167
42
-0.41421356237309842
0
LWPOLYLINE
5
103
100
AcDbEntity
8
0
100
AcDbPolyline
90
9
70
1
43
0.0
10
114.11971367578252
20
43.458382897791196
42
0.47105658359896901
10
111.17376187680675
20
47.025276184148908
10
72.011024856655283
20
47.025276184135222
10
72.01102485666101
20
30.40774424445322
10
46.38387313154098
20
30.407744244444288
10
46.383873131535253
20
47.025276184126298
10
-80.38897514334495
20
47.025276184081982
10
-80.388975143289301
20
-114.01852516215823
10
83.816230106706911
20
-114.01852516210084
0
ENDSEC
0
SECTION
2
OBJECTS
0
DICTIONARY
5
C
100
AcDbDictionary
3
ACAD_GROUP
350
D
3
ACAD_MLINESTYLE
350
17
0
DICTIONARY
5
D
100
AcDbDictionary
0
DICTIONARY
5
1A
330
C
100
AcDbDictionary
0
DICTIONARY
5
17
100
AcDbDictionary
0
ENDSEC
0
EOF
